<svg width="16" height="22" viewBox="0 0 16 22" fill="none" xmlns="http://www.w3.org/2000/svg">
<path d="M13.28 12.68L8 17.96L2.72 12.68C2.08 12.04 1.12 12.04 0.48 12.68C-0.16 13.32 -0.16 14.28 0.48 14.92L6.88 21.32C7.2 21.64 7.6 21.8 8 21.8C8.4 21.8 8.8 21.64 9.12 21.32L15.52 14.92C16.16 14.28 16.16 13.32 15.52 12.68C14.88 12.04 13.92 12.04 13.28 12.68Z" fill="white"/>
<path d="M15.52 0.879994C14.88 0.239994 13.92 0.239994 13.28 0.879994L8 6.15999L2.72 0.879994C2.08 0.239994 1.12 0.239994 0.48 0.879994C-0.16 1.51999 -0.16 2.48 0.48 3.12L6.88 9.52C7.2 9.84 7.6 10 8 10C8.4 10 8.8 9.84 9.12 9.52L15.52 3.12C16.16 2.48 16.16 1.51999 15.52 0.879994Z" fill="white"/>
</svg>
