<svg width="30" height="44" viewBox="0 0 30 44" fill="none" xmlns="http://www.w3.org/2000/svg">
<path d="M29.4001 29V14.6C29.4001 6.68001 22.9201 0.200012 15.0001 0.200012C7.0801 0.200012 0.600098 6.68001 0.600098 14.6V29C0.600098 36.92 7.0801 43.4 15.0001 43.4C22.9201 43.4 29.4001 36.92 29.4001 29ZM15.0001 40.2C8.8401 40.2 3.8001 35.16 3.8001 29V14.6C3.8001 8.44001 8.8401 3.40001 15.0001 3.40001C21.1601 3.40001 26.2001 8.44001 26.2001 14.6V29C26.2001 35.16 21.1601 40.2 15.0001 40.2Z" fill="white"/>
<path d="M14.9999 9C14.1199 9 13.3999 9.72 13.3999 10.6V15.4C13.3999 16.28 14.1199 17 14.9999 17C15.8799 17 16.5999 16.28 16.5999 15.4V10.6C16.5999 9.72 15.8799 9 14.9999 9Z" fill="white"/>
</svg>
